# xmcd
#
# Track frame offsets:
#	150
#	13203
#	26015
#	34147
#	46771
#	56395
#	69595
#	78483
#	89727
#	96775
#	108163
#	119078
#	131464
#	136744
#	147964
#	158996
#	165640
#	178176
#	190007
#
# Disc length: 3470 seconds
#
# Revision: 1
# Processed by: cddbd v1.5.2PL0 Copyright (c) Steve Scherf et al.
# Submitted via: audiograbber 1.83.01
#
DISCID=050d8c13
DTITLE=Carolina Cotton - Yodeling Blonde Bombshell Vol. 1
DYEAR=1900
DGENRE=Country
TTITLE0=Three Miles South of Cash (in Arkansas)
TTITLE1=I Love To Yodel
TTITLE2=What's The Matter With You
TTITLE3=Singing on the Trail
TTITLE4=You And My Old Guitar
TTITLE5=Mockingbird Yodel
TTITLE6=Mama Yo Quiero
TTITLE7=I Betcha I Getcha
TTITLE8=Tennessee Saturday Night
TTITLE9=Cattle Call
TTITLE10=You Always Keep Me In Hot Water
TTITLE11=You're Gettin' A Good Girl
TTITLE12=Rancho Grande
TTITLE13=Cause I'm In Love
TTITLE14=Yodel Yodel Yodel
TTITLE15=I'm Gonna Round Up My Blues
TTITLE16=Tater Pie
TTITLE17=Nola
TTITLE18=Carolina Cotton Calls (show #88)
EXTD=
EXTT0=
EXTT1=
EXTT2=
EXTT3=
EXTT4=
EXTT5=
EXTT6=
EXTT7=
EXTT8=
EXTT9=
EXTT10=
EXTT11=
EXTT12=
EXTT13=
EXTT14=
EXTT15=
EXTT16=
EXTT17=
EXTT18=
PLAYORDER=
